<svg width="241" height="264" viewBox="0 0 241 264" fill="none" xmlns="http://www.w3.org/2000/svg">
<path d="M179.462 8.25229C178.428 8.26434 178.248 8.48822 178.23 8.50881C178.212 8.5298 178.019 8.74396 178.154 9.78444C178.29 10.8249 178.828 12.4488 179.822 14.3035C181.809 18.013 185.534 22.6471 190.384 26.9124C195.233 31.1781 200.282 34.2603 204.181 35.7283C206.131 36.4621 207.791 36.7711 208.825 36.759C209.858 36.7474 210.039 36.5235 210.057 36.5025C210.075 36.4815 210.268 36.2678 210.132 35.2273C209.996 34.1868 209.458 32.5629 208.465 30.7082C206.478 26.9987 202.753 22.3646 197.903 18.0989C193.053 13.8336 188.004 10.7515 184.104 9.28344C182.155 8.54924 180.496 8.24024 179.462 8.25229ZM120.5 22.9317C70.8159 22.9317 30.5391 63.825 30.5391 114.27C30.5391 138.736 40.0137 160.955 55.441 177.352C20.4918 196.306 94.914 188.895 120.5 188.895C146.02 188.895 217.538 199.451 196.648 167.643C207.707 147.87 210.461 138.803 210.461 114.27C210.461 89.0708 200.41 66.2561 184.157 49.731L156.932 66.1197L168.728 37.1559C154.789 28.1507 138.246 22.9317 120.5 22.9317ZM180.226 27.2342L171.199 49.3979L191.518 37.166L185.875 32.2034L185.872 32.2007L185.869 32.1976L180.226 27.2342ZM120.5 54.8027C152.807 54.8027 179.07 81.4684 179.07 114.27C179.07 147.071 152.807 173.736 120.5 173.736C88.1933 173.736 61.9297 147.071 61.9297 114.27C61.9297 81.4684 88.1933 54.8027 120.5 54.8027ZM120.5 61.7988C112.684 61.7988 105.281 63.5556 98.6452 66.6969C103.066 79.4764 110.63 95.6133 120.5 95.6133C130.385 95.6133 137.698 79.4251 142.225 66.6359C135.623 63.5331 128.265 61.7988 120.5 61.7988ZM158.304 78.4651C147.694 86.6828 134.898 98.9831 137.949 108.52C141.005 118.067 158.433 120.125 171.813 120.544C172.053 118.486 172.18 116.394 172.18 114.27C172.18 100.416 166.914 87.8352 158.304 78.4651ZM82.6104 78.5595C74.0507 87.9191 68.8203 100.463 68.8203 114.27C68.8203 116.427 68.9505 118.552 69.1985 120.64C82.533 120.319 99.9694 118 103.018 108.474C106.07 98.9357 93.1871 86.8826 82.6104 78.5595ZM109.479 95.5223C108.852 95.5405 108.243 95.732 107.715 96.0761C107.188 96.4203 106.763 96.904 106.486 97.4753C106.209 98.0465 106.091 98.6836 106.145 99.3178C106.199 99.9521 106.422 100.559 106.79 101.075C107.139 101.562 107.606 101.95 108.146 102.201C108.686 102.451 109.28 102.556 109.872 102.504C110.464 102.453 111.032 102.247 111.522 101.907C112.012 101.567 112.407 101.104 112.669 100.563C112.931 100.022 113.051 99.4213 113.017 98.8195C112.984 98.2177 112.797 97.635 112.476 97.1279C112.155 96.6208 111.711 96.2065 111.186 95.9252C110.66 95.6439 110.073 95.5051 109.479 95.5223ZM131.521 95.5223C130.927 95.5051 130.34 95.6439 129.814 95.9252C129.289 96.2065 128.845 96.6208 128.524 97.1279C128.203 97.635 128.016 98.2177 127.983 98.8195C127.949 99.4213 128.069 100.022 128.331 100.563C128.593 101.104 128.988 101.567 129.478 101.907C129.968 102.247 130.536 102.453 131.128 102.504C131.72 102.556 132.314 102.451 132.854 102.201C133.394 101.95 133.861 101.562 134.21 101.075C134.578 100.559 134.801 99.9521 134.855 99.3178C134.909 98.6836 134.791 98.0465 134.514 97.4753C134.237 96.904 133.812 96.4203 133.285 96.0761C132.757 95.732 132.148 95.5405 131.521 95.5223ZM120.5 101.832C113.735 101.832 108.25 107.401 108.25 114.27C108.25 121.139 113.735 126.707 120.5 126.707C127.265 126.707 132.75 121.139 132.75 114.27C132.75 107.401 127.265 101.832 120.5 101.832ZM102.777 116.616C102.237 116.624 101.707 116.76 101.229 117.014C100.751 117.268 100.338 117.632 100.024 118.078C99.7102 118.523 99.5035 119.038 99.421 119.579C99.3385 120.12 99.3823 120.674 99.5491 121.195C99.8315 122.077 100.447 122.809 101.262 123.231C102.076 123.652 103.021 123.727 103.89 123.441C104.674 123.182 105.341 122.646 105.77 121.931C106.198 121.216 106.36 120.368 106.225 119.542C106.09 118.716 105.668 117.967 105.036 117.43C104.403 116.893 103.601 116.604 102.777 116.616ZM138.035 116.618C137.175 116.653 136.359 117.014 135.748 117.629C135.136 118.245 134.774 119.07 134.732 119.944C134.69 120.817 134.972 121.674 135.521 122.347C136.071 123.02 136.849 123.459 137.702 123.579C138.555 123.698 139.421 123.489 140.13 122.993C140.838 122.497 141.338 121.749 141.531 120.897C141.724 120.045 141.595 119.15 141.171 118.39C140.747 117.629 140.057 117.057 139.239 116.787C138.851 116.659 138.443 116.602 138.035 116.618ZM103.05 127.39C94.785 127.431 83.8174 133.932 75.3251 139.8C82.6096 153.08 95.4074 162.795 110.599 165.778C114.423 152.8 117.65 135.221 109.662 129.329C107.804 127.958 105.552 127.378 103.05 127.39ZM137.892 127.398C135.373 127.398 133.11 127.987 131.252 129.358C123.253 135.258 126.71 152.719 130.452 165.768C145.645 162.769 158.439 153.035 165.709 139.737C157.285 133.82 146.211 127.398 137.892 127.398V127.398ZM120.5 129.653C119.586 129.653 118.71 130.022 118.064 130.678C117.418 131.334 117.055 132.223 117.055 133.151C117.055 134.079 117.418 134.969 118.064 135.625C118.71 136.281 119.586 136.649 120.5 136.649C121.414 136.649 122.29 136.281 122.936 135.625C123.582 134.969 123.945 134.079 123.945 133.151C123.945 132.223 123.582 131.334 122.936 130.678C122.29 130.022 121.414 129.653 120.5 129.653Z" fill="white"/>
<path d="M2.07031 216.816H6.75781C8.04688 216.816 9.34245 216.829 10.6445 216.855C11.9596 216.882 13.2161 216.934 14.4141 217.012C15.625 217.077 16.7383 217.168 17.7539 217.285C18.7695 217.402 19.6224 217.552 20.3125 217.734C21.3281 218.034 22.2721 218.503 23.1445 219.141C24.0299 219.779 24.8503 220.527 25.6055 221.387C25.9049 221.738 26.237 222.214 26.6016 222.812C26.9792 223.398 27.3307 224.076 27.6562 224.844C27.9948 225.612 28.2747 226.445 28.4961 227.344C28.7174 228.242 28.8281 229.173 28.8281 230.137C28.8281 232.415 28.3984 234.473 27.5391 236.309C26.6927 238.132 25.4622 239.811 23.8477 241.348C23.7695 241.387 23.6523 241.465 23.4961 241.582C23.3529 241.699 23.1966 241.829 23.0273 241.973C22.8581 242.103 22.6953 242.227 22.5391 242.344C22.3958 242.461 22.2917 242.546 22.2266 242.598C21.9271 242.845 21.556 243.079 21.1133 243.301C20.6836 243.522 20.2083 243.724 19.6875 243.906C19.1667 244.089 18.6198 244.258 18.0469 244.414C17.487 244.57 16.9336 244.701 16.3867 244.805C15.8398 244.909 15.3255 244.987 14.8438 245.039C14.362 245.104 13.9453 245.137 13.5938 245.137C13.0859 245.137 12.5651 245.111 12.0312 245.059C11.4974 245.02 10.8789 245 10.1758 245H1.44531C1.02865 245 0.820312 244.863 0.820312 244.59C0.820312 244.434 0.957031 244.31 1.23047 244.219C1.50391 244.115 1.83594 244.036 2.22656 243.984C2.61719 243.919 3.03385 243.867 3.47656 243.828C3.91927 243.776 4.31641 243.717 4.66797 243.652C4.92839 243.6 5.1237 243.529 5.25391 243.438C5.39714 243.333 5.49479 243.223 5.54688 243.105C5.61198 242.832 5.65104 242.617 5.66406 242.461C5.67708 242.292 5.68359 242.103 5.68359 241.895V218.145C5.64453 218.053 5.47526 217.969 5.17578 217.891C4.88932 217.812 4.53776 217.741 4.12109 217.676C3.71745 217.611 3.28125 217.546 2.8125 217.48C2.34375 217.415 1.91406 217.35 1.52344 217.285C1.3151 217.259 1.21094 217.194 1.21094 217.09C1.21094 217.064 1.28255 216.999 1.42578 216.895C1.47786 216.868 1.54948 216.849 1.64062 216.836C1.74479 216.823 1.88802 216.816 2.07031 216.816ZM10.1758 218.242V229.219C10.1758 230.013 10.1497 230.781 10.0977 231.523C10.0586 232.253 10.013 232.969 9.96094 233.672C9.92188 234.375 9.8763 235.078 9.82422 235.781C9.78516 236.471 9.76562 237.181 9.76562 237.91C9.76562 239.551 9.85677 240.814 10.0391 241.699C10.2344 242.572 10.5013 243.197 10.8398 243.574C10.9961 243.783 11.2174 243.919 11.5039 243.984C11.8034 244.036 12.0703 244.062 12.3047 244.062C13.3203 244.062 14.2839 243.932 15.1953 243.672C16.1068 243.411 16.9466 243.053 17.7148 242.598C18.4961 242.142 19.1927 241.608 19.8047 240.996C20.4297 240.384 20.957 239.727 21.3867 239.023C22.2852 237.578 22.9557 236.126 23.3984 234.668C23.8411 233.197 24.0625 231.797 24.0625 230.469C24.0625 229.74 24.0039 229.043 23.8867 228.379C23.7826 227.715 23.6523 227.103 23.4961 226.543C23.3398 225.983 23.1706 225.488 22.9883 225.059C22.806 224.629 22.6432 224.29 22.5 224.043C22.3047 223.691 22.0312 223.268 21.6797 222.773C21.3281 222.266 20.8724 221.745 20.3125 221.211C19.7656 220.664 19.0951 220.137 18.3008 219.629C17.5065 219.108 16.5625 218.659 15.4688 218.281C14.7917 218.034 14.1146 217.865 13.4375 217.773C12.7604 217.682 12.0182 217.637 11.2109 217.637C11.1328 217.637 11.0286 217.643 10.8984 217.656C10.7812 217.669 10.6706 217.695 10.5664 217.734C10.4622 217.773 10.3711 217.839 10.293 217.93C10.2148 218.008 10.1758 218.112 10.1758 218.242ZM41.1523 242.188L41.0547 242.266C41.0417 242.266 40.931 242.363 40.7227 242.559C40.5273 242.741 40.306 242.949 40.0586 243.184C39.8112 243.405 39.5768 243.613 39.3555 243.809C39.1341 244.004 38.9974 244.108 38.9453 244.121C38.5286 244.355 38.0534 244.577 37.5195 244.785C36.9987 244.993 36.4062 245.098 35.7422 245.098C35.2734 245.098 34.8047 245.033 34.3359 244.902C33.8802 244.772 33.4635 244.551 33.0859 244.238C32.7214 243.913 32.4219 243.483 32.1875 242.949C31.9661 242.415 31.8555 241.738 31.8555 240.918C31.8555 240.618 31.9271 240.241 32.0703 239.785C32.2266 239.316 32.4805 238.893 32.832 238.516C33.1966 238.086 33.5938 237.728 34.0234 237.441C34.4661 237.142 34.9479 236.882 35.4688 236.66C36.0026 236.426 36.5885 236.217 37.2266 236.035C37.8646 235.853 38.5742 235.664 39.3555 235.469C39.5378 235.43 39.7331 235.384 39.9414 235.332C40.1497 235.28 40.3451 235.228 40.5273 235.176C40.7227 235.124 40.8854 235.078 41.0156 235.039C41.1589 234.987 41.25 234.941 41.2891 234.902C41.3542 234.85 41.4128 234.805 41.4648 234.766C41.5299 234.727 41.569 234.635 41.582 234.492C41.6341 234.193 41.6797 233.874 41.7188 233.535C41.7708 233.197 41.8099 232.858 41.8359 232.52C41.875 232.181 41.901 231.855 41.9141 231.543C41.9271 231.23 41.9336 230.951 41.9336 230.703C41.9336 230.195 41.8359 229.72 41.6406 229.277C41.4453 228.835 41.1784 228.451 40.8398 228.125C40.5143 227.799 40.1302 227.546 39.6875 227.363C39.2448 227.181 38.776 227.09 38.2812 227.09C37.8906 227.09 37.4805 227.188 37.0508 227.383C36.6341 227.565 36.25 227.812 35.8984 228.125C35.5599 228.438 35.2799 228.796 35.0586 229.199C34.8372 229.59 34.7266 229.993 34.7266 230.41C34.7266 230.605 34.7786 230.762 34.8828 230.879C34.987 230.996 35.0977 231.107 35.2148 231.211C35.332 231.315 35.4427 231.432 35.5469 231.562C35.651 231.693 35.7031 231.868 35.7031 232.09C35.7031 232.624 35.5339 233.04 35.1953 233.34C34.8568 233.639 34.4401 233.789 33.9453 233.789C33.6458 233.789 33.3789 233.73 33.1445 233.613C32.9232 233.483 32.7279 233.32 32.5586 233.125C32.3893 232.917 32.2591 232.682 32.168 232.422C32.0898 232.161 32.0508 231.895 32.0508 231.621C32.0508 231.361 32.1224 231.081 32.2656 230.781C32.4089 230.482 32.5846 230.189 32.793 229.902C33.0013 229.616 33.2161 229.349 33.4375 229.102C33.6719 228.841 33.8672 228.633 34.0234 228.477C34.3099 228.203 34.5833 227.962 34.8438 227.754C35.1172 227.546 35.4036 227.337 35.7031 227.129C35.9245 226.986 36.1523 226.868 36.3867 226.777C36.6211 226.686 36.849 226.608 37.0703 226.543C37.2005 226.491 37.3763 226.432 37.5977 226.367C37.832 226.289 38.0859 226.217 38.3594 226.152C38.6458 226.087 38.9388 226.035 39.2383 225.996C39.5508 225.944 39.8503 225.918 40.1367 225.918C40.7487 225.918 41.3477 226.003 41.9336 226.172C42.5326 226.341 43.0599 226.608 43.5156 226.973C43.9844 227.337 44.362 227.806 44.6484 228.379C44.9349 228.952 45.0781 229.635 45.0781 230.43C45.0781 231.315 45.0326 232.22 44.9414 233.145C44.8503 234.069 44.7461 234.954 44.6289 235.801C44.5247 236.647 44.4271 237.422 44.3359 238.125C44.2448 238.828 44.1992 239.395 44.1992 239.824C44.1992 240.046 44.2188 240.326 44.2578 240.664C44.2969 240.99 44.3685 241.309 44.4727 241.621C44.5898 241.921 44.7461 242.181 44.9414 242.402C45.1367 242.624 45.3906 242.734 45.7031 242.734C46.0677 242.734 46.4193 242.65 46.7578 242.48C47.0964 242.311 47.4089 242.096 47.6953 241.836C47.9818 241.576 48.2357 241.289 48.457 240.977C48.6914 240.664 48.8802 240.358 49.0234 240.059C49.0495 240.007 49.0755 239.954 49.1016 239.902C49.1406 239.837 49.1927 239.805 49.2578 239.805C49.3099 239.805 49.3359 239.85 49.3359 239.941V240.137C49.3359 240.71 49.2253 241.289 49.0039 241.875C48.7956 242.448 48.4831 242.975 48.0664 243.457C47.6628 243.926 47.1615 244.31 46.5625 244.609C45.9635 244.909 45.2734 245.059 44.4922 245.059C44.349 245.059 44.1797 245.046 43.9844 245.02C43.8021 245.007 43.6263 244.967 43.457 244.902C43.1185 244.733 42.8385 244.551 42.6172 244.355C42.3958 244.147 42.2005 243.932 42.0312 243.711C41.875 243.49 41.7253 243.255 41.582 243.008C41.4518 242.747 41.3086 242.474 41.1523 242.188ZM34.9609 241.484C34.9609 241.81 35.026 242.09 35.1562 242.324C35.2865 242.559 35.4557 242.754 35.6641 242.91C35.8854 243.053 36.1328 243.164 36.4062 243.242C36.6797 243.307 36.9531 243.34 37.2266 243.34C37.5651 243.34 37.8906 243.307 38.2031 243.242C38.5286 243.164 38.8346 243.066 39.1211 242.949C39.4076 242.832 39.668 242.708 39.9023 242.578C40.1497 242.435 40.3711 242.298 40.5664 242.168C40.8919 241.882 41.0547 241.589 41.0547 241.289C41.0547 240.326 41.1133 239.421 41.2305 238.574C41.3607 237.715 41.4258 236.875 41.4258 236.055C41.4258 235.964 41.4128 235.866 41.3867 235.762C41.3737 235.658 41.3151 235.605 41.2109 235.605C41.0938 235.605 40.9766 235.625 40.8594 235.664C40.7552 235.69 40.6576 235.716 40.5664 235.742C39.9935 235.951 39.4336 236.178 38.8867 236.426C38.3398 236.673 37.7995 236.927 37.2656 237.188C36.901 237.383 36.5755 237.643 36.2891 237.969C36.0026 238.294 35.7617 238.652 35.5664 239.043C35.3711 239.434 35.2214 239.844 35.1172 240.273C35.013 240.69 34.9609 241.094 34.9609 241.484ZM34.4727 219.902C34.4727 219.629 34.5182 219.362 34.6094 219.102C34.7005 218.841 34.8242 218.613 34.9805 218.418C35.1497 218.223 35.3516 218.066 35.5859 217.949C35.8203 217.832 36.0807 217.773 36.3672 217.773C36.6146 217.773 36.875 217.826 37.1484 217.93C37.4349 218.021 37.6953 218.158 37.9297 218.34C38.1771 218.522 38.3789 218.737 38.5352 218.984C38.7044 219.232 38.7891 219.505 38.7891 219.805C38.7891 220.039 38.7174 220.28 38.5742 220.527C38.444 220.775 38.2682 221.003 38.0469 221.211C37.8385 221.419 37.6042 221.595 37.3438 221.738C37.0964 221.868 36.849 221.934 36.6016 221.934C36.3672 221.934 36.1263 221.882 35.8789 221.777C35.6315 221.66 35.4036 221.51 35.1953 221.328C34.987 221.133 34.8112 220.911 34.668 220.664C34.5378 220.417 34.4727 220.163 34.4727 219.902ZM41.6406 219.863C41.6406 219.59 41.6797 219.323 41.7578 219.062C41.849 218.802 41.9727 218.574 42.1289 218.379C42.2982 218.184 42.5 218.027 42.7344 217.91C42.9688 217.793 43.2357 217.734 43.5352 217.734C43.7826 217.734 44.043 217.786 44.3164 217.891C44.6029 217.982 44.8633 218.118 45.0977 218.301C45.332 218.47 45.5273 218.685 45.6836 218.945C45.8398 219.193 45.918 219.466 45.918 219.766C45.918 220 45.8529 220.241 45.7227 220.488C45.5924 220.736 45.4167 220.964 45.1953 221.172C44.987 221.38 44.7526 221.556 44.4922 221.699C44.2318 221.829 43.9779 221.895 43.7305 221.895C43.4961 221.895 43.2552 221.842 43.0078 221.738C42.7734 221.621 42.5521 221.471 42.3438 221.289C42.1354 221.094 41.9661 220.872 41.8359 220.625C41.7057 220.378 41.6406 220.124 41.6406 219.863ZM57.4219 242.266C57.5911 242.37 57.7604 242.461 57.9297 242.539C58.099 242.617 58.2812 242.689 58.4766 242.754C58.6719 242.806 58.8867 242.845 59.1211 242.871C59.3555 242.897 59.6224 242.91 59.9219 242.91C60.3646 242.91 60.8268 242.799 61.3086 242.578C61.7904 242.357 62.2461 242.083 62.6758 241.758C63.1055 241.419 63.4896 241.055 63.8281 240.664C64.1667 240.26 64.4206 239.889 64.5898 239.551C64.6549 239.408 64.7396 239.31 64.8438 239.258C64.9609 239.193 65.0781 239.147 65.1953 239.121C65.2865 239.186 65.3385 239.264 65.3516 239.355C65.3646 239.447 65.3711 239.538 65.3711 239.629C65.3711 240.072 65.2474 240.501 65 240.918C64.7656 241.322 64.5117 241.699 64.2383 242.051C63.8346 242.559 63.418 243.008 62.9883 243.398C62.5586 243.776 62.0964 244.095 61.6016 244.355C61.1198 244.616 60.5924 244.811 60.0195 244.941C59.4466 245.072 58.8151 245.137 58.125 245.137C56.888 245.137 55.7878 244.857 54.8242 244.297C53.8607 243.737 53.0469 243.014 52.3828 242.129C51.7188 241.23 51.2109 240.221 50.8594 239.102C50.5078 237.969 50.332 236.836 50.332 235.703C50.332 234.479 50.5273 233.281 50.918 232.109C51.3216 230.938 51.8945 229.896 52.6367 228.984C53.3789 228.06 54.2839 227.318 55.3516 226.758C56.4193 226.198 57.6302 225.918 58.9844 225.918C59.4922 225.918 60.0065 225.957 60.5273 226.035C61.0612 226.1 61.5755 226.224 62.0703 226.406C62.5651 226.576 63.0273 226.81 63.457 227.109C63.8997 227.409 64.2773 227.786 64.5898 228.242C64.694 228.398 64.7982 228.542 64.9023 228.672C65.0065 228.802 65.0977 228.932 65.1758 229.062C65.2669 229.18 65.3385 229.31 65.3906 229.453C65.4427 229.583 65.4688 229.74 65.4688 229.922C65.4688 230.169 65.4167 230.391 65.3125 230.586C65.2214 230.781 65.0911 230.944 64.9219 231.074C64.7656 231.204 64.5768 231.309 64.3555 231.387C64.1471 231.452 63.9323 231.484 63.7109 231.484C63.3854 231.484 63.1185 231.374 62.9102 231.152C62.7148 230.918 62.526 230.632 62.3438 230.293C62.1745 229.941 61.9922 229.57 61.7969 229.18C61.6016 228.776 61.3477 228.405 61.0352 228.066C60.7227 227.715 60.332 227.428 59.8633 227.207C59.3945 226.973 58.7956 226.855 58.0664 226.855C57.6628 226.855 57.2656 226.934 56.875 227.09C56.4844 227.233 56.1198 227.435 55.7812 227.695C55.4557 227.943 55.1628 228.229 54.9023 228.555C54.6419 228.867 54.4336 229.199 54.2773 229.551C53.9909 230.293 53.8216 231.035 53.7695 231.777C53.7305 232.507 53.7109 233.242 53.7109 233.984C53.7109 234.792 53.763 235.592 53.8672 236.387C53.9844 237.181 54.1797 237.943 54.4531 238.672C54.7396 239.388 55.1172 240.059 55.5859 240.684C56.0677 241.296 56.6797 241.823 57.4219 242.266ZM73.457 235.176L73.0273 244.082C73.0273 244.147 73.0599 244.18 73.125 244.18H75.0781C75.2995 244.18 75.4883 244.225 75.6445 244.316C75.8138 244.395 75.8984 244.512 75.8984 244.668C75.8984 244.837 75.8138 244.941 75.6445 244.98C75.4753 245.02 75.332 245.039 75.2148 245.039C74.9023 245.039 74.6289 245.033 74.3945 245.02C74.1732 245.02 73.9323 245.02 73.6719 245.02C73.4115 245.02 73.1055 245.013 72.7539 245C72.4154 245 71.9661 245 71.4062 245C70.9115 245 70.332 245.007 69.668 245.02C69.0169 245.046 68.3659 245.059 67.7148 245.059C67.4544 245.059 67.2135 245.039 66.9922 245C66.7839 244.974 66.6797 244.863 66.6797 244.668C66.6797 244.512 66.7122 244.395 66.7773 244.316C66.8424 244.225 66.9661 244.18 67.1484 244.18H69.2383C69.3555 244.18 69.4987 244.147 69.668 244.082C69.8372 244.004 69.9219 243.893 69.9219 243.75L70.8984 222.637C70.8984 222.454 70.8919 222.279 70.8789 222.109C70.8789 221.927 70.8594 221.764 70.8203 221.621C70.7552 221.23 70.625 220.872 70.4297 220.547C70.2344 220.221 69.9284 220.059 69.5117 220.059C69.3034 220.059 69.1276 220.091 68.9844 220.156C68.8542 220.208 68.7044 220.234 68.5352 220.234C68.4961 220.234 68.3984 220.221 68.2422 220.195C68.099 220.169 67.9427 220.13 67.7734 220.078C67.6172 220.026 67.474 219.954 67.3438 219.863C67.2135 219.772 67.1484 219.668 67.1484 219.551C67.1484 219.368 67.2005 219.232 67.3047 219.141C67.4219 219.036 67.5586 218.958 67.7148 218.906C67.8711 218.854 68.0339 218.822 68.2031 218.809C68.3724 218.783 68.5156 218.75 68.6328 218.711C69.4922 218.555 70.306 218.366 71.0742 218.145C71.8424 217.91 72.6367 217.65 73.457 217.363C73.4701 217.363 73.4961 217.357 73.5352 217.344C73.5612 217.344 73.5872 217.344 73.6133 217.344C73.6523 217.331 73.6914 217.324 73.7305 217.324C73.8997 217.324 74.0104 217.363 74.0625 217.441C74.1146 217.507 74.1536 217.572 74.1797 217.637C74.2188 217.65 74.2383 217.76 74.2383 217.969C74.2383 218.034 74.2253 218.118 74.1992 218.223C74.1862 218.314 74.1797 218.431 74.1797 218.574L73.4961 233.711C73.4961 234.049 73.6003 234.219 73.8086 234.219C73.9258 234.219 74.0169 234.193 74.082 234.141C74.1471 234.089 74.2253 234.036 74.3164 233.984C74.7591 233.62 75.2734 233.197 75.8594 232.715C76.4453 232.233 77.0117 231.764 77.5586 231.309C78.1185 230.84 78.6068 230.43 79.0234 230.078C79.4531 229.727 79.7201 229.499 79.8242 229.395C79.9284 229.29 79.9805 229.154 79.9805 228.984C79.9805 228.724 79.8438 228.535 79.5703 228.418C79.5312 228.379 79.4531 228.333 79.3359 228.281C79.2188 228.216 79.0885 228.151 78.9453 228.086C78.8021 228.021 78.6523 227.962 78.4961 227.91C78.3529 227.845 78.2292 227.799 78.125 227.773C78.0078 227.721 77.793 227.682 77.4805 227.656C77.168 227.63 76.875 227.591 76.6016 227.539C76.4193 227.5 76.3281 227.383 76.3281 227.188C76.3281 227.044 76.3802 226.947 76.4844 226.895C76.6016 226.829 76.7318 226.797 76.875 226.797C76.9922 226.797 77.2266 226.803 77.5781 226.816C77.9427 226.829 78.3333 226.842 78.75 226.855C79.1797 226.868 79.5964 226.882 80 226.895C80.4167 226.908 80.7357 226.914 80.957 226.914C81.4779 226.914 81.9596 226.908 82.4023 226.895C82.8581 226.882 83.2943 226.868 83.7109 226.855C84.1406 226.842 84.5638 226.829 84.9805 226.816C85.3971 226.803 85.8398 226.797 86.3086 226.797C86.556 226.797 86.6797 226.882 86.6797 227.051C86.6797 227.285 86.4844 227.454 86.0938 227.559C85.7161 227.663 85.3906 227.754 85.1172 227.832C84.8568 227.91 84.6159 227.995 84.3945 228.086C84.1732 228.164 83.9453 228.255 83.7109 228.359C83.4896 228.451 83.2292 228.568 82.9297 228.711C82.5 228.919 82.0768 229.134 81.6602 229.355C81.2435 229.564 80.8789 229.779 80.5664 230C80.319 230.182 80.0977 230.345 79.9023 230.488C79.7201 230.632 79.5378 230.775 79.3555 230.918C79.1732 231.061 78.9779 231.211 78.7695 231.367C78.5742 231.51 78.3464 231.673 78.0859 231.855C77.9818 231.934 77.8646 232.018 77.7344 232.109C77.6172 232.201 77.5 232.298 77.3828 232.402C77.2656 232.493 77.168 232.591 77.0898 232.695C77.0117 232.799 76.9727 232.904 76.9727 233.008C76.9727 233.112 76.9987 233.19 77.0508 233.242C77.3372 233.633 77.7214 234.167 78.2031 234.844C78.6979 235.521 79.2383 236.263 79.8242 237.07C80.4102 237.865 81.0156 238.691 81.6406 239.551C82.2656 240.397 82.8516 241.198 83.3984 241.953C83.6458 242.305 83.8932 242.624 84.1406 242.91C84.401 243.184 84.6745 243.418 84.9609 243.613C85.2604 243.796 85.5924 243.945 85.957 244.062C86.3216 244.167 86.7513 244.232 87.2461 244.258C87.3893 244.258 87.4674 244.303 87.4805 244.395C87.5065 244.486 87.5195 244.577 87.5195 244.668C87.5195 244.733 87.4935 244.798 87.4414 244.863C87.4023 244.928 87.3372 244.974 87.2461 245H86.1328C85.8464 245 85.5404 244.993 85.2148 244.98C84.8893 244.967 84.5638 244.954 84.2383 244.941C83.9258 244.915 83.6198 244.896 83.3203 244.883C83.0339 244.87 82.7799 244.863 82.5586 244.863C81.9076 244.863 81.276 244.896 80.6641 244.961C80.0651 245.026 79.4661 245.059 78.8672 245.059C78.763 245.059 78.6458 245.052 78.5156 245.039C78.3984 245.039 78.2812 245.026 78.1641 245C78.0599 244.987 77.9688 244.954 77.8906 244.902C77.8255 244.85 77.793 244.772 77.793 244.668C77.793 244.329 77.9622 244.16 78.3008 244.16C78.5612 244.16 78.8216 244.167 79.082 244.18C79.3424 244.18 79.6419 244.18 79.9805 244.18C80.1497 244.18 80.2995 244.154 80.4297 244.102C80.5599 244.036 80.625 243.932 80.625 243.789C80.625 243.633 80.5859 243.47 80.5078 243.301C80.4427 243.118 80.3581 242.943 80.2539 242.773C80.1497 242.591 80.0326 242.422 79.9023 242.266C79.7852 242.109 79.6745 241.973 79.5703 241.855C79.1276 241.27 78.6589 240.651 78.1641 240C77.6693 239.349 77.1745 238.711 76.6797 238.086C76.1979 237.461 75.7292 236.882 75.2734 236.348C74.8307 235.814 74.4401 235.378 74.1016 235.039C74.0234 234.948 73.9258 234.902 73.8086 234.902C73.5742 234.902 73.457 234.993 73.457 235.176ZM88.5742 242.188C88.5742 241.836 88.6523 241.491 88.8086 241.152C88.9779 240.801 89.1016 240.475 89.1797 240.176C89.1797 240.124 89.1927 240.02 89.2188 239.863C89.2578 239.694 89.2969 239.518 89.3359 239.336C89.388 239.141 89.4336 238.965 89.4727 238.809C89.5117 238.652 89.5378 238.542 89.5508 238.477C89.5898 238.294 89.681 238.203 89.8242 238.203C90.0326 238.203 90.1432 238.327 90.1562 238.574C90.1823 238.757 90.1888 238.932 90.1758 239.102C90.1758 239.258 90.1953 239.447 90.2344 239.668C90.3516 240.28 90.5143 240.859 90.7227 241.406C90.944 241.94 91.224 242.415 91.5625 242.832C91.9141 243.249 92.3307 243.581 92.8125 243.828C93.3073 244.062 93.8867 244.18 94.5508 244.18C95.0326 244.18 95.4948 244.108 95.9375 243.965C96.3802 243.809 96.7708 243.594 97.1094 243.32C97.4609 243.047 97.7344 242.708 97.9297 242.305C98.138 241.901 98.2422 241.445 98.2422 240.938C98.2422 240.143 98.099 239.492 97.8125 238.984C97.5391 238.477 97.1745 238.053 96.7188 237.715C96.276 237.376 95.7617 237.103 95.1758 236.895C94.6029 236.673 94.0104 236.465 93.3984 236.27C92.7995 236.061 92.207 235.84 91.6211 235.605C91.0482 235.358 90.5339 235.039 90.0781 234.648C89.6354 234.245 89.2708 233.743 88.9844 233.145C88.7109 232.546 88.5742 231.79 88.5742 230.879C88.5742 230.319 88.6719 229.837 88.8672 229.434C89.0625 229.017 89.2383 228.685 89.3945 228.438C89.5898 228.138 89.8372 227.839 90.1367 227.539C90.4362 227.227 90.7812 226.953 91.1719 226.719C91.5625 226.471 91.9987 226.27 92.4805 226.113C92.9753 225.957 93.5091 225.879 94.082 225.879C94.5898 225.879 95.1367 225.983 95.7227 226.191C96.3216 226.387 96.8424 226.667 97.2852 227.031C97.4284 227.148 97.5716 227.279 97.7148 227.422C97.8581 227.565 98.0013 227.637 98.1445 227.637C98.3268 227.637 98.4766 227.578 98.5938 227.461C98.7109 227.331 98.8281 227.161 98.9453 226.953C98.9714 226.927 98.9974 226.914 99.0234 226.914C99.0625 226.901 99.0951 226.895 99.1211 226.895C99.1602 226.895 99.1862 226.934 99.1992 227.012C99.2253 227.077 99.2448 227.155 99.2578 227.246C99.2839 227.324 99.2969 227.409 99.2969 227.5C99.3099 227.578 99.3164 227.637 99.3164 227.676C99.3164 227.715 99.2969 227.845 99.2578 228.066C99.2318 228.288 99.1862 228.555 99.1211 228.867C99.069 229.167 99.0039 229.492 98.9258 229.844C98.8607 230.182 98.7826 230.501 98.6914 230.801C98.6133 231.087 98.5286 231.328 98.4375 231.523C98.3594 231.719 98.2812 231.816 98.2031 231.816C98.1771 231.816 98.151 231.81 98.125 231.797C98.0729 231.771 98.0469 231.745 98.0469 231.719C97.9427 231.536 97.8711 231.38 97.832 231.25C97.793 231.12 97.7604 230.996 97.7344 230.879C97.7214 230.762 97.7083 230.645 97.6953 230.527C97.6953 230.397 97.6758 230.254 97.6367 230.098C97.6107 229.993 97.5846 229.896 97.5586 229.805C97.5326 229.701 97.5 229.609 97.4609 229.531C97.2917 229.102 97.1159 228.75 96.9336 228.477C96.7513 228.203 96.4974 227.923 96.1719 227.637C95.9505 227.415 95.7487 227.246 95.5664 227.129C95.3971 226.999 95.2148 226.908 95.0195 226.855C94.8242 226.79 94.5964 226.751 94.3359 226.738C94.0755 226.725 93.7565 226.719 93.3789 226.719C93.0143 226.719 92.6758 226.803 92.3633 226.973C92.0638 227.129 91.8034 227.344 91.582 227.617C91.3607 227.891 91.1849 228.21 91.0547 228.574C90.9375 228.926 90.8789 229.297 90.8789 229.688C90.8789 230.339 91.0156 230.872 91.2891 231.289C91.5755 231.693 91.9466 232.038 92.4023 232.324C92.8711 232.598 93.3984 232.832 93.9844 233.027C94.5703 233.223 95.1628 233.424 95.7617 233.633C96.3737 233.841 96.9727 234.089 97.5586 234.375C98.1445 234.648 98.6654 235.013 99.1211 235.469C99.5898 235.911 99.9609 236.471 100.234 237.148C100.521 237.812 100.664 238.639 100.664 239.629C100.664 240.28 100.495 240.938 100.156 241.602C99.8177 242.253 99.401 242.865 98.9062 243.438C98.6849 243.698 98.3854 243.939 98.0078 244.16C97.6432 244.368 97.2331 244.551 96.7773 244.707C96.3346 244.863 95.8659 244.98 95.3711 245.059C94.8893 245.15 94.4141 245.195 93.9453 245.195C93.4766 245.195 92.9362 245.091 92.3242 244.883C91.7122 244.674 91.1263 244.414 90.5664 244.102C90.0065 243.789 89.5312 243.464 89.1406 243.125C88.763 242.773 88.5742 242.461 88.5742 242.188ZM108.691 235.176L108.262 244.082C108.262 244.147 108.294 244.18 108.359 244.18H110.312C110.534 244.18 110.723 244.225 110.879 244.316C111.048 244.395 111.133 244.512 111.133 244.668C111.133 244.837 111.048 244.941 110.879 244.98C110.71 245.02 110.566 245.039 110.449 245.039C110.137 245.039 109.863 245.033 109.629 245.02C109.408 245.02 109.167 245.02 108.906 245.02C108.646 245.02 108.34 245.013 107.988 245C107.65 245 107.201 245 106.641 245C106.146 245 105.566 245.007 104.902 245.02C104.251 245.046 103.6 245.059 102.949 245.059C102.689 245.059 102.448 245.039 102.227 245C102.018 244.974 101.914 244.863 101.914 244.668C101.914 244.512 101.947 244.395 102.012 244.316C102.077 244.225 102.201 244.18 102.383 244.18H104.473C104.59 244.18 104.733 244.147 104.902 244.082C105.072 244.004 105.156 243.893 105.156 243.75L106.133 222.637C106.133 222.454 106.126 222.279 106.113 222.109C106.113 221.927 106.094 221.764 106.055 221.621C105.99 221.23 105.859 220.872 105.664 220.547C105.469 220.221 105.163 220.059 104.746 220.059C104.538 220.059 104.362 220.091 104.219 220.156C104.089 220.208 103.939 220.234 103.77 220.234C103.73 220.234 103.633 220.221 103.477 220.195C103.333 220.169 103.177 220.13 103.008 220.078C102.852 220.026 102.708 219.954 102.578 219.863C102.448 219.772 102.383 219.668 102.383 219.551C102.383 219.368 102.435 219.232 102.539 219.141C102.656 219.036 102.793 218.958 102.949 218.906C103.105 218.854 103.268 218.822 103.438 218.809C103.607 218.783 103.75 218.75 103.867 218.711C104.727 218.555 105.54 218.366 106.309 218.145C107.077 217.91 107.871 217.65 108.691 217.363C108.704 217.363 108.73 217.357 108.77 217.344C108.796 217.344 108.822 217.344 108.848 217.344C108.887 217.331 108.926 217.324 108.965 217.324C109.134 217.324 109.245 217.363 109.297 217.441C109.349 217.507 109.388 217.572 109.414 217.637C109.453 217.65 109.473 217.76 109.473 217.969C109.473 218.034 109.46 218.118 109.434 218.223C109.421 218.314 109.414 218.431 109.414 218.574L108.73 233.711C108.73 234.049 108.835 234.219 109.043 234.219C109.16 234.219 109.251 234.193 109.316 234.141C109.382 234.089 109.46 234.036 109.551 233.984C109.993 233.62 110.508 233.197 111.094 232.715C111.68 232.233 112.246 231.764 112.793 231.309C113.353 230.84 113.841 230.43 114.258 230.078C114.688 229.727 114.954 229.499 115.059 229.395C115.163 229.29 115.215 229.154 115.215 228.984C115.215 228.724 115.078 228.535 114.805 228.418C114.766 228.379 114.688 228.333 114.57 228.281C114.453 228.216 114.323 228.151 114.18 228.086C114.036 228.021 113.887 227.962 113.73 227.91C113.587 227.845 113.464 227.799 113.359 227.773C113.242 227.721 113.027 227.682 112.715 227.656C112.402 227.63 112.109 227.591 111.836 227.539C111.654 227.5 111.562 227.383 111.562 227.188C111.562 227.044 111.615 226.947 111.719 226.895C111.836 226.829 111.966 226.797 112.109 226.797C112.227 226.797 112.461 226.803 112.812 226.816C113.177 226.829 113.568 226.842 113.984 226.855C114.414 226.868 114.831 226.882 115.234 226.895C115.651 226.908 115.97 226.914 116.191 226.914C116.712 226.914 117.194 226.908 117.637 226.895C118.092 226.882 118.529 226.868 118.945 226.855C119.375 226.842 119.798 226.829 120.215 226.816C120.632 226.803 121.074 226.797 121.543 226.797C121.79 226.797 121.914 226.882 121.914 227.051C121.914 227.285 121.719 227.454 121.328 227.559C120.951 227.663 120.625 227.754 120.352 227.832C120.091 227.91 119.85 227.995 119.629 228.086C119.408 228.164 119.18 228.255 118.945 228.359C118.724 228.451 118.464 228.568 118.164 228.711C117.734 228.919 117.311 229.134 116.895 229.355C116.478 229.564 116.113 229.779 115.801 230C115.553 230.182 115.332 230.345 115.137 230.488C114.954 230.632 114.772 230.775 114.59 230.918C114.408 231.061 114.212 231.211 114.004 231.367C113.809 231.51 113.581 231.673 113.32 231.855C113.216 231.934 113.099 232.018 112.969 232.109C112.852 232.201 112.734 232.298 112.617 232.402C112.5 232.493 112.402 232.591 112.324 232.695C112.246 232.799 112.207 232.904 112.207 233.008C112.207 233.112 112.233 233.19 112.285 233.242C112.572 233.633 112.956 234.167 113.438 234.844C113.932 235.521 114.473 236.263 115.059 237.07C115.645 237.865 116.25 238.691 116.875 239.551C117.5 240.397 118.086 241.198 118.633 241.953C118.88 242.305 119.128 242.624 119.375 242.91C119.635 243.184 119.909 243.418 120.195 243.613C120.495 243.796 120.827 243.945 121.191 244.062C121.556 244.167 121.986 244.232 122.48 244.258C122.624 244.258 122.702 244.303 122.715 244.395C122.741 244.486 122.754 244.577 122.754 244.668C122.754 244.733 122.728 244.798 122.676 244.863C122.637 244.928 122.572 244.974 122.48 245H121.367C121.081 245 120.775 244.993 120.449 244.98C120.124 244.967 119.798 244.954 119.473 244.941C119.16 244.915 118.854 244.896 118.555 244.883C118.268 244.87 118.014 244.863 117.793 244.863C117.142 244.863 116.51 244.896 115.898 244.961C115.299 245.026 114.701 245.059 114.102 245.059C113.997 245.059 113.88 245.052 113.75 245.039C113.633 245.039 113.516 245.026 113.398 245C113.294 244.987 113.203 244.954 113.125 244.902C113.06 244.85 113.027 244.772 113.027 244.668C113.027 244.329 113.197 244.16 113.535 244.16C113.796 244.16 114.056 244.167 114.316 244.18C114.577 244.18 114.876 244.18 115.215 244.18C115.384 244.18 115.534 244.154 115.664 244.102C115.794 244.036 115.859 243.932 115.859 243.789C115.859 243.633 115.82 243.47 115.742 243.301C115.677 243.118 115.592 242.943 115.488 242.773C115.384 242.591 115.267 242.422 115.137 242.266C115.02 242.109 114.909 241.973 114.805 241.855C114.362 241.27 113.893 240.651 113.398 240C112.904 239.349 112.409 238.711 111.914 238.086C111.432 237.461 110.964 236.882 110.508 236.348C110.065 235.814 109.674 235.378 109.336 235.039C109.258 234.948 109.16 234.902 109.043 234.902C108.809 234.902 108.691 234.993 108.691 235.176ZM123.828 244.629C123.828 244.564 123.835 244.466 123.848 244.336C123.874 244.193 123.958 244.121 124.102 244.121H126.367C126.484 244.121 126.608 244.082 126.738 244.004C126.868 243.926 126.934 243.822 126.934 243.691V232.129C126.934 231.517 126.914 230.983 126.875 230.527C126.836 230.072 126.712 229.727 126.504 229.492C126.413 229.349 126.322 229.258 126.23 229.219C126.152 229.18 126.087 229.147 126.035 229.121C125.97 229.095 125.898 229.076 125.82 229.062C125.755 229.049 125.677 229.043 125.586 229.043H125.176C124.915 229.043 124.603 229.049 124.238 229.062C123.874 229.076 123.568 229.095 123.32 229.121C123.268 229.121 123.21 229.115 123.145 229.102C123.079 229.076 123.047 229.036 123.047 228.984C123.047 228.841 123.073 228.757 123.125 228.73C123.19 228.704 123.268 228.665 123.359 228.613C123.867 228.444 124.421 228.301 125.02 228.184C125.618 228.053 126.191 227.917 126.738 227.773C126.777 227.773 126.862 227.754 126.992 227.715C127.135 227.663 127.279 227.611 127.422 227.559C127.578 227.507 127.728 227.454 127.871 227.402C128.014 227.35 128.118 227.311 128.184 227.285C128.353 227.233 128.522 227.161 128.691 227.07C128.874 226.966 129.056 226.868 129.238 226.777C129.421 226.686 129.596 226.608 129.766 226.543C129.948 226.478 130.13 226.445 130.312 226.445C130.378 226.445 130.436 226.478 130.488 226.543C130.553 226.608 130.586 226.699 130.586 226.816V239.492C130.586 239.961 130.573 240.352 130.547 240.664C130.534 240.964 130.514 241.243 130.488 241.504C130.462 241.751 130.436 242.005 130.41 242.266C130.397 242.513 130.391 242.819 130.391 243.184C130.391 243.561 130.43 243.815 130.508 243.945C130.599 244.062 130.853 244.121 131.27 244.121C131.413 244.121 131.634 244.108 131.934 244.082C132.233 244.043 132.487 244.023 132.695 244.023C132.799 244.023 132.91 244.036 133.027 244.062C133.158 244.076 133.275 244.108 133.379 244.16C133.496 244.212 133.587 244.284 133.652 244.375C133.73 244.466 133.77 244.583 133.77 244.727C133.77 244.818 133.75 244.896 133.711 244.961C133.685 245.026 133.613 245.059 133.496 245.059C132.546 245.059 131.686 245.046 130.918 245.02C130.163 245.007 129.447 245 128.77 245C127.611 245 126.673 245.052 125.957 245.156C125.241 245.26 124.733 245.312 124.434 245.312C124.03 245.312 123.828 245.085 123.828 244.629ZM126.504 219.023C126.504 218.672 126.569 218.372 126.699 218.125C126.829 217.865 126.999 217.656 127.207 217.5C127.428 217.331 127.682 217.214 127.969 217.148C128.255 217.07 128.555 217.031 128.867 217.031C129.154 217.031 129.427 217.083 129.688 217.188C129.948 217.292 130.176 217.435 130.371 217.617C130.566 217.799 130.716 218.014 130.82 218.262C130.938 218.509 130.996 218.77 130.996 219.043C130.996 219.395 130.938 219.701 130.82 219.961C130.703 220.208 130.54 220.41 130.332 220.566C130.124 220.723 129.876 220.84 129.59 220.918C129.316 220.983 129.017 221.016 128.691 221.016C128.014 221.016 127.48 220.859 127.09 220.547C126.699 220.234 126.504 219.727 126.504 219.023ZM141.895 228.418V243.281C141.895 243.424 141.921 243.568 141.973 243.711C142.025 243.854 142.168 243.926 142.402 243.926H144.57C144.688 243.926 144.811 243.932 144.941 243.945C145.072 243.945 145.189 243.965 145.293 244.004C145.41 244.043 145.501 244.102 145.566 244.18C145.645 244.258 145.684 244.375 145.684 244.531C145.684 244.609 145.632 244.707 145.527 244.824C145.436 244.941 145.319 245 145.176 245H142.207C141.96 245 141.634 244.993 141.23 244.98C140.84 244.954 140.462 244.941 140.098 244.941C139.694 244.941 139.355 244.954 139.082 244.98C138.809 244.993 138.483 245.013 138.105 245.039C137.962 245.052 137.819 245.059 137.676 245.059C137.533 245.059 137.376 245.059 137.207 245.059H136.113C135.892 245.059 135.71 245.039 135.566 245C135.436 244.974 135.371 244.87 135.371 244.688C135.371 244.609 135.41 244.538 135.488 244.473C135.566 244.408 135.664 244.355 135.781 244.316C135.898 244.264 136.022 244.232 136.152 244.219C136.296 244.193 136.432 244.18 136.562 244.18H136.934C137.103 244.18 137.298 244.173 137.52 244.16C137.741 244.147 137.962 244.102 138.184 244.023C138.236 243.997 138.275 243.952 138.301 243.887C138.34 243.822 138.392 243.763 138.457 243.711V228.418C138.457 228.171 138.294 228.047 137.969 228.047C137.591 228.047 137.201 228.092 136.797 228.184C136.406 228.262 136.042 228.301 135.703 228.301C135.625 228.301 135.54 228.301 135.449 228.301C135.358 228.301 135.267 228.294 135.176 228.281C135.085 228.255 135.007 228.229 134.941 228.203C134.889 228.164 134.863 228.112 134.863 228.047C134.863 227.917 134.98 227.793 135.215 227.676C135.449 227.559 135.729 227.441 136.055 227.324C136.38 227.207 136.706 227.083 137.031 226.953C137.37 226.823 137.63 226.686 137.812 226.543C138.073 226.322 138.249 226.061 138.34 225.762C138.444 225.462 138.509 225.15 138.535 224.824C138.574 224.486 138.607 224.147 138.633 223.809C138.659 223.47 138.73 223.145 138.848 222.832C139.264 221.751 139.831 220.801 140.547 219.98C141.276 219.147 142.103 218.451 143.027 217.891C143.965 217.318 144.974 216.888 146.055 216.602C147.148 216.315 148.262 216.172 149.395 216.172C149.824 216.172 150.352 216.198 150.977 216.25C151.615 216.289 152.233 216.406 152.832 216.602C153.431 216.784 153.939 217.057 154.355 217.422C154.785 217.786 155 218.281 155 218.906C155 219.036 154.961 219.206 154.883 219.414C154.818 219.622 154.733 219.792 154.629 219.922C154.199 220.495 153.685 220.781 153.086 220.781C152.865 220.781 152.63 220.755 152.383 220.703C152.148 220.638 151.927 220.54 151.719 220.41C151.615 220.345 151.504 220.247 151.387 220.117C151.283 219.974 151.204 219.876 151.152 219.824C150.853 219.342 150.534 218.984 150.195 218.75C149.87 218.503 149.466 218.275 148.984 218.066C148.88 218.027 148.73 217.982 148.535 217.93C148.34 217.865 148.132 217.806 147.91 217.754C147.689 217.702 147.467 217.656 147.246 217.617C147.025 217.578 146.829 217.559 146.66 217.559C146.113 217.559 145.586 217.63 145.078 217.773C144.57 217.917 144.069 218.151 143.574 218.477C143.327 218.62 143.118 218.835 142.949 219.121C142.78 219.395 142.643 219.688 142.539 220C142.435 220.312 142.35 220.618 142.285 220.918C142.233 221.217 142.194 221.452 142.168 221.621C142.064 222.207 141.999 222.806 141.973 223.418C141.96 224.017 141.953 224.609 141.953 225.195C141.953 225.273 141.953 225.371 141.953 225.488C141.966 225.605 141.986 225.723 142.012 225.84C142.038 225.957 142.077 226.055 142.129 226.133C142.181 226.211 142.259 226.25 142.363 226.25C142.546 226.25 142.812 226.237 143.164 226.211C143.516 226.185 143.893 226.152 144.297 226.113C144.714 226.074 145.13 226.042 145.547 226.016C145.977 225.99 146.367 225.977 146.719 225.977C147.083 225.977 147.266 226.146 147.266 226.484C147.266 226.628 147.253 226.829 147.227 227.09C147.214 227.337 147.181 227.533 147.129 227.676C147.129 227.754 147.031 227.806 146.836 227.832C146.654 227.858 146.491 227.871 146.348 227.871C145.892 227.871 145.501 227.865 145.176 227.852C144.863 227.826 144.57 227.806 144.297 227.793C144.036 227.767 143.77 227.747 143.496 227.734C143.236 227.708 142.936 227.695 142.598 227.695C142.454 227.695 142.357 227.708 142.305 227.734C142.266 227.76 142.22 227.78 142.168 227.793C142.025 227.884 141.947 227.995 141.934 228.125C141.934 228.255 141.921 228.353 141.895 228.418ZM150.859 239.551C150.859 237.702 150.905 235.885 150.996 234.102C151.087 232.305 151.146 230.475 151.172 228.613C150.664 228.613 150.176 228.652 149.707 228.73C149.251 228.809 148.796 228.848 148.34 228.848C148.197 228.848 148.053 228.835 147.91 228.809C147.767 228.783 147.695 228.691 147.695 228.535C147.695 228.483 147.708 228.444 147.734 228.418C147.773 228.392 147.826 228.346 147.891 228.281C148.555 227.682 149.193 227.09 149.805 226.504C150.43 225.918 151.035 225.306 151.621 224.668C151.79 224.473 151.966 224.258 152.148 224.023C152.344 223.789 152.539 223.555 152.734 223.32C152.943 223.073 153.151 222.826 153.359 222.578C153.581 222.331 153.796 222.103 154.004 221.895C154.056 221.842 154.128 221.816 154.219 221.816C154.336 221.816 154.414 221.895 154.453 222.051L154.219 226.348C154.219 226.595 154.271 226.719 154.375 226.719L159.414 226.348C159.531 226.348 159.622 226.38 159.688 226.445C159.753 226.51 159.798 226.595 159.824 226.699C159.85 226.79 159.863 226.888 159.863 226.992C159.876 227.096 159.883 227.188 159.883 227.266C159.883 227.617 159.837 227.878 159.746 228.047C159.655 228.203 159.401 228.281 158.984 228.281H154.277C154.173 228.281 154.095 228.346 154.043 228.477C154.017 228.529 154.004 228.587 154.004 228.652V239.434C154.004 239.889 154.108 240.371 154.316 240.879C154.538 241.387 154.876 241.868 155.332 242.324C155.54 242.533 155.814 242.708 156.152 242.852C156.491 242.995 156.816 243.066 157.129 243.066C157.832 243.066 158.392 242.982 158.809 242.812C159.225 242.63 159.564 242.402 159.824 242.129C160.098 241.855 160.319 241.562 160.488 241.25C160.658 240.924 160.853 240.618 161.074 240.332C161.126 240.202 161.185 240.137 161.25 240.137C161.315 240.137 161.354 240.182 161.367 240.273C161.393 240.352 161.406 240.417 161.406 240.469C161.406 240.768 161.309 241.126 161.113 241.543C160.931 241.947 160.684 242.357 160.371 242.773C160.072 243.177 159.733 243.548 159.355 243.887C158.978 244.212 158.607 244.447 158.242 244.59C157.591 244.863 156.901 245 156.172 245C155.339 245 154.59 244.831 153.926 244.492C153.275 244.154 152.721 243.724 152.266 243.203C151.81 242.669 151.458 242.083 151.211 241.445C150.977 240.794 150.859 240.163 150.859 239.551ZM172.402 242.188L172.305 242.266C172.292 242.266 172.181 242.363 171.973 242.559C171.777 242.741 171.556 242.949 171.309 243.184C171.061 243.405 170.827 243.613 170.605 243.809C170.384 244.004 170.247 244.108 170.195 244.121C169.779 244.355 169.303 244.577 168.77 244.785C168.249 244.993 167.656 245.098 166.992 245.098C166.523 245.098 166.055 245.033 165.586 244.902C165.13 244.772 164.714 244.551 164.336 244.238C163.971 243.913 163.672 243.483 163.438 242.949C163.216 242.415 163.105 241.738 163.105 240.918C163.105 240.618 163.177 240.241 163.32 239.785C163.477 239.316 163.73 238.893 164.082 238.516C164.447 238.086 164.844 237.728 165.273 237.441C165.716 237.142 166.198 236.882 166.719 236.66C167.253 236.426 167.839 236.217 168.477 236.035C169.115 235.853 169.824 235.664 170.605 235.469C170.788 235.43 170.983 235.384 171.191 235.332C171.4 235.28 171.595 235.228 171.777 235.176C171.973 235.124 172.135 235.078 172.266 235.039C172.409 234.987 172.5 234.941 172.539 234.902C172.604 234.85 172.663 234.805 172.715 234.766C172.78 234.727 172.819 234.635 172.832 234.492C172.884 234.193 172.93 233.874 172.969 233.535C173.021 233.197 173.06 232.858 173.086 232.52C173.125 232.181 173.151 231.855 173.164 231.543C173.177 231.23 173.184 230.951 173.184 230.703C173.184 230.195 173.086 229.72 172.891 229.277C172.695 228.835 172.428 228.451 172.09 228.125C171.764 227.799 171.38 227.546 170.938 227.363C170.495 227.181 170.026 227.09 169.531 227.09C169.141 227.09 168.73 227.188 168.301 227.383C167.884 227.565 167.5 227.812 167.148 228.125C166.81 228.438 166.53 228.796 166.309 229.199C166.087 229.59 165.977 229.993 165.977 230.41C165.977 230.605 166.029 230.762 166.133 230.879C166.237 230.996 166.348 231.107 166.465 231.211C166.582 231.315 166.693 231.432 166.797 231.562C166.901 231.693 166.953 231.868 166.953 232.09C166.953 232.624 166.784 233.04 166.445 233.34C166.107 233.639 165.69 233.789 165.195 233.789C164.896 233.789 164.629 233.73 164.395 233.613C164.173 233.483 163.978 233.32 163.809 233.125C163.639 232.917 163.509 232.682 163.418 232.422C163.34 232.161 163.301 231.895 163.301 231.621C163.301 231.361 163.372 231.081 163.516 230.781C163.659 230.482 163.835 230.189 164.043 229.902C164.251 229.616 164.466 229.349 164.688 229.102C164.922 228.841 165.117 228.633 165.273 228.477C165.56 228.203 165.833 227.962 166.094 227.754C166.367 227.546 166.654 227.337 166.953 227.129C167.174 226.986 167.402 226.868 167.637 226.777C167.871 226.686 168.099 226.608 168.32 226.543C168.451 226.491 168.626 226.432 168.848 226.367C169.082 226.289 169.336 226.217 169.609 226.152C169.896 226.087 170.189 226.035 170.488 225.996C170.801 225.944 171.1 225.918 171.387 225.918C171.999 225.918 172.598 226.003 173.184 226.172C173.783 226.341 174.31 226.608 174.766 226.973C175.234 227.337 175.612 227.806 175.898 228.379C176.185 228.952 176.328 229.635 176.328 230.43C176.328 231.315 176.283 232.22 176.191 233.145C176.1 234.069 175.996 234.954 175.879 235.801C175.775 236.647 175.677 237.422 175.586 238.125C175.495 238.828 175.449 239.395 175.449 239.824C175.449 240.046 175.469 240.326 175.508 240.664C175.547 240.99 175.618 241.309 175.723 241.621C175.84 241.921 175.996 242.181 176.191 242.402C176.387 242.624 176.641 242.734 176.953 242.734C177.318 242.734 177.669 242.65 178.008 242.48C178.346 242.311 178.659 242.096 178.945 241.836C179.232 241.576 179.486 241.289 179.707 240.977C179.941 240.664 180.13 240.358 180.273 240.059C180.299 240.007 180.326 239.954 180.352 239.902C180.391 239.837 180.443 239.805 180.508 239.805C180.56 239.805 180.586 239.85 180.586 239.941V240.137C180.586 240.71 180.475 241.289 180.254 241.875C180.046 242.448 179.733 242.975 179.316 243.457C178.913 243.926 178.411 244.31 177.812 244.609C177.214 244.909 176.523 245.059 175.742 245.059C175.599 245.059 175.43 245.046 175.234 245.02C175.052 245.007 174.876 244.967 174.707 244.902C174.368 244.733 174.089 244.551 173.867 244.355C173.646 244.147 173.451 243.932 173.281 243.711C173.125 243.49 172.975 243.255 172.832 243.008C172.702 242.747 172.559 242.474 172.402 242.188ZM166.211 241.484C166.211 241.81 166.276 242.09 166.406 242.324C166.536 242.559 166.706 242.754 166.914 242.91C167.135 243.053 167.383 243.164 167.656 243.242C167.93 243.307 168.203 243.34 168.477 243.34C168.815 243.34 169.141 243.307 169.453 243.242C169.779 243.164 170.085 243.066 170.371 242.949C170.658 242.832 170.918 242.708 171.152 242.578C171.4 242.435 171.621 242.298 171.816 242.168C172.142 241.882 172.305 241.589 172.305 241.289C172.305 240.326 172.363 239.421 172.48 238.574C172.611 237.715 172.676 236.875 172.676 236.055C172.676 235.964 172.663 235.866 172.637 235.762C172.624 235.658 172.565 235.605 172.461 235.605C172.344 235.605 172.227 235.625 172.109 235.664C172.005 235.69 171.908 235.716 171.816 235.742C171.243 235.951 170.684 236.178 170.137 236.426C169.59 236.673 169.049 236.927 168.516 237.188C168.151 237.383 167.826 237.643 167.539 237.969C167.253 238.294 167.012 238.652 166.816 239.043C166.621 239.434 166.471 239.844 166.367 240.273C166.263 240.69 166.211 241.094 166.211 241.484ZM184.629 243.438V232.734C184.629 232.344 184.622 231.934 184.609 231.504C184.609 231.061 184.583 230.651 184.531 230.273C184.492 229.896 184.421 229.577 184.316 229.316C184.225 229.043 184.095 228.867 183.926 228.789C183.613 228.646 183.229 228.574 182.773 228.574C182.474 228.574 182.194 228.587 181.934 228.613C181.686 228.639 181.458 228.652 181.25 228.652C181.185 228.652 181.126 228.626 181.074 228.574C181.022 228.522 180.996 228.47 180.996 228.418C180.996 228.275 181.042 228.19 181.133 228.164C181.536 227.93 181.947 227.767 182.363 227.676C182.78 227.585 183.21 227.467 183.652 227.324C184.043 227.207 184.44 227.083 184.844 226.953C185.247 226.823 185.618 226.654 185.957 226.445C186.191 226.328 186.406 226.204 186.602 226.074C186.797 225.944 187.044 225.879 187.344 225.879C187.422 225.879 187.493 225.931 187.559 226.035C187.637 226.126 187.676 226.198 187.676 226.25V227.324C187.676 227.428 187.676 227.552 187.676 227.695C187.689 227.839 187.695 227.982 187.695 228.125C187.708 228.268 187.721 228.405 187.734 228.535C187.747 228.652 187.76 228.737 187.773 228.789C187.786 228.841 187.806 228.88 187.832 228.906L187.852 228.926C187.93 228.926 188.001 228.887 188.066 228.809C188.132 228.717 188.203 228.607 188.281 228.477C188.372 228.333 188.47 228.177 188.574 228.008C188.691 227.839 188.841 227.669 189.023 227.5C189.271 227.253 189.544 227.025 189.844 226.816C190.156 226.595 190.475 226.406 190.801 226.25C191.139 226.094 191.478 225.97 191.816 225.879C192.168 225.788 192.513 225.742 192.852 225.742C193.346 225.742 193.854 225.788 194.375 225.879C194.896 225.957 195.365 226.107 195.781 226.328C196.211 226.536 196.562 226.836 196.836 227.227C197.109 227.617 197.246 228.112 197.246 228.711C197.246 229.036 197.174 229.336 197.031 229.609C196.901 229.883 196.719 230.117 196.484 230.312C196.263 230.508 196.003 230.664 195.703 230.781C195.417 230.885 195.117 230.938 194.805 230.938C194.596 230.938 194.375 230.905 194.141 230.84C193.906 230.775 193.757 230.697 193.691 230.605C193.288 230.241 193.008 229.746 192.852 229.121C192.786 228.77 192.741 228.477 192.715 228.242C192.702 227.995 192.65 227.806 192.559 227.676C192.48 227.533 192.344 227.435 192.148 227.383C191.953 227.318 191.647 227.285 191.23 227.285C190.892 227.285 190.54 227.376 190.176 227.559C189.824 227.728 189.492 227.949 189.18 228.223C188.88 228.496 188.62 228.802 188.398 229.141C188.177 229.466 188.047 229.785 188.008 230.098C187.943 230.384 187.904 230.697 187.891 231.035C187.891 231.361 187.891 231.699 187.891 232.051V243.789C187.969 243.958 188.112 244.069 188.32 244.121C188.529 244.16 188.763 244.18 189.023 244.18C189.102 244.18 189.206 244.18 189.336 244.18C189.479 244.167 189.622 244.16 189.766 244.16C189.922 244.147 190.059 244.141 190.176 244.141C190.293 244.128 190.371 244.121 190.41 244.121C190.71 244.121 190.951 244.16 191.133 244.238C191.328 244.303 191.426 244.453 191.426 244.688C191.426 244.844 191.348 244.987 191.191 245.117C191.048 245.247 190.905 245.319 190.762 245.332C190.046 245.215 189.31 245.13 188.555 245.078C187.812 245.026 187.07 245 186.328 245C185.547 245 184.818 245.033 184.141 245.098C183.464 245.163 182.76 245.195 182.031 245.195C181.888 245.195 181.719 245.143 181.523 245.039C181.341 244.935 181.25 244.798 181.25 244.629C181.25 244.525 181.283 244.434 181.348 244.355C181.413 244.277 181.491 244.219 181.582 244.18C181.686 244.128 181.784 244.089 181.875 244.062C181.979 244.036 182.064 244.023 182.129 244.023C182.272 244.023 182.409 244.03 182.539 244.043C182.682 244.056 182.832 244.069 182.988 244.082C183.105 244.108 183.229 244.128 183.359 244.141C183.49 244.154 183.613 244.16 183.73 244.16C183.809 244.16 183.893 244.141 183.984 244.102C184.089 244.062 184.186 244.01 184.277 243.945C184.382 243.867 184.466 243.789 184.531 243.711C184.596 243.62 184.629 243.529 184.629 243.438ZM215.703 232.5H202.188C202.044 232.552 201.96 232.611 201.934 232.676C201.908 232.728 201.882 232.839 201.855 233.008C201.829 233.125 201.803 233.379 201.777 233.77C201.764 234.16 201.758 234.603 201.758 235.098C201.758 235.592 201.816 236.068 201.934 236.523C202.051 236.979 202.181 237.428 202.324 237.871C202.871 239.486 203.724 240.716 204.883 241.562C206.055 242.409 207.591 242.832 209.492 242.832C209.779 242.832 210.091 242.78 210.43 242.676C210.768 242.572 211.107 242.441 211.445 242.285C211.784 242.116 212.109 241.921 212.422 241.699C212.734 241.478 213.008 241.25 213.242 241.016C213.411 240.859 213.548 240.684 213.652 240.488C213.77 240.28 213.913 240.026 214.082 239.727C214.134 239.674 214.206 239.635 214.297 239.609C214.388 239.57 214.466 239.551 214.531 239.551C214.766 239.551 214.922 239.629 215 239.785C215.091 239.928 215.137 240.111 215.137 240.332C215.137 240.397 215.111 240.488 215.059 240.605C215.02 240.71 214.967 240.82 214.902 240.938C214.85 241.055 214.785 241.172 214.707 241.289C214.642 241.393 214.59 241.471 214.551 241.523C214.056 242.266 213.431 242.923 212.676 243.496C211.921 244.056 211.016 244.512 209.961 244.863C209.727 244.928 209.323 244.98 208.75 245.02C208.19 245.072 207.578 245.098 206.914 245.098C206.328 245.098 205.723 245.02 205.098 244.863C204.486 244.707 203.887 244.486 203.301 244.199C202.715 243.913 202.168 243.581 201.66 243.203C201.165 242.826 200.755 242.409 200.43 241.953C199.727 240.99 199.206 240.013 198.867 239.023C198.542 238.034 198.379 236.927 198.379 235.703C198.379 235.26 198.398 234.844 198.438 234.453C198.49 234.049 198.568 233.659 198.672 233.281C198.789 232.904 198.932 232.533 199.102 232.168C199.271 231.79 199.479 231.406 199.727 231.016C200.156 230.299 200.645 229.642 201.191 229.043C201.738 228.444 202.344 227.93 203.008 227.5C203.672 227.07 204.388 226.738 205.156 226.504C205.924 226.27 206.751 226.152 207.637 226.152C208.379 226.152 209.147 226.23 209.941 226.387C210.749 226.53 211.523 226.855 212.266 227.363C212.5 227.533 212.826 227.793 213.242 228.145C213.659 228.496 214.069 228.893 214.473 229.336C214.876 229.766 215.228 230.221 215.527 230.703C215.827 231.185 215.977 231.647 215.977 232.09C215.977 232.207 215.951 232.305 215.898 232.383C215.859 232.461 215.794 232.5 215.703 232.5ZM202.695 231.445H211.387C211.608 231.445 211.738 231.419 211.777 231.367C211.829 231.302 211.855 231.237 211.855 231.172C211.855 230.872 211.777 230.56 211.621 230.234C211.478 229.909 211.296 229.603 211.074 229.316C210.866 229.017 210.651 228.75 210.43 228.516C210.208 228.281 210.02 228.099 209.863 227.969C209.447 227.617 209.03 227.389 208.613 227.285C208.197 227.181 207.721 227.129 207.188 227.129C206.966 227.129 206.758 227.135 206.562 227.148C206.38 227.148 206.198 227.161 206.016 227.188C205.833 227.214 205.651 227.253 205.469 227.305C205.286 227.357 205.085 227.435 204.863 227.539C204.616 227.656 204.342 227.845 204.043 228.105C203.757 228.353 203.483 228.646 203.223 228.984C202.975 229.31 202.76 229.668 202.578 230.059C202.409 230.449 202.324 230.833 202.324 231.211C202.324 231.367 202.448 231.445 202.695 231.445ZM233.34 243.438V232.422C233.34 231.042 232.982 230 232.266 229.297C231.562 228.594 230.592 228.242 229.355 228.242C228.77 228.242 228.236 228.301 227.754 228.418C227.272 228.535 226.895 228.704 226.621 228.926C226.204 229.264 225.859 229.596 225.586 229.922C225.326 230.247 225.117 230.599 224.961 230.977C224.805 231.341 224.694 231.751 224.629 232.207C224.564 232.663 224.531 233.19 224.531 233.789V243.066C224.531 243.405 224.629 243.639 224.824 243.77C225.02 243.887 225.371 243.945 225.879 243.945H226.992C227.461 243.945 227.695 244.095 227.695 244.395C227.695 244.785 227.507 245.007 227.129 245.059H226.074C225.579 245.059 225.072 245.046 224.551 245.02C224.043 245.007 223.483 245 222.871 245C222.637 245 222.331 245.007 221.953 245.02C221.589 245.033 221.198 245.039 220.781 245.039C220.365 245.052 219.948 245.065 219.531 245.078C219.115 245.091 218.75 245.098 218.438 245.098C218.151 245.098 218.008 244.954 218.008 244.668C218.008 244.342 218.177 244.16 218.516 244.121C218.945 244.082 219.375 244.062 219.805 244.062H220.918C220.983 244.062 221.055 244.03 221.133 243.965C221.211 243.9 221.25 243.815 221.25 243.711V235.508C221.25 235.065 221.276 234.525 221.328 233.887C221.393 233.249 221.426 232.604 221.426 231.953C221.426 231.641 221.413 231.341 221.387 231.055C221.361 230.755 221.315 230.482 221.25 230.234C221.185 229.974 221.081 229.746 220.938 229.551C220.807 229.355 220.638 229.199 220.43 229.082C220.365 229.03 220.208 228.991 219.961 228.965C219.714 228.939 219.453 228.926 219.18 228.926C218.958 228.926 218.743 228.939 218.535 228.965C218.34 228.978 218.21 228.984 218.145 228.984C217.897 228.984 217.741 228.952 217.676 228.887C217.624 228.835 217.598 228.789 217.598 228.75C217.598 228.659 217.656 228.587 217.773 228.535C217.904 228.483 218.079 228.405 218.301 228.301C218.379 228.275 218.503 228.242 218.672 228.203C218.841 228.164 219.01 228.125 219.18 228.086C219.362 228.047 219.525 228.014 219.668 227.988C219.824 227.949 219.922 227.93 219.961 227.93C220.612 227.76 221.257 227.513 221.895 227.188C222.546 226.862 223.184 226.582 223.809 226.348C223.874 226.309 223.952 226.276 224.043 226.25C224.095 226.237 224.141 226.224 224.18 226.211C224.388 226.289 224.492 226.458 224.492 226.719C224.492 226.992 224.46 227.253 224.395 227.5C224.329 227.747 224.297 227.969 224.297 228.164C224.297 228.281 224.297 228.457 224.297 228.691C224.31 228.913 224.329 229.141 224.355 229.375C224.382 229.596 224.408 229.798 224.434 229.98C224.473 230.15 224.525 230.234 224.59 230.234C224.642 230.234 224.753 230.13 224.922 229.922C225.104 229.701 225.319 229.44 225.566 229.141C225.814 228.828 226.087 228.503 226.387 228.164C226.699 227.826 227.012 227.533 227.324 227.285C227.949 226.829 228.568 226.491 229.18 226.27C229.805 226.048 230.521 225.938 231.328 225.938C232.383 225.938 233.236 226.081 233.887 226.367C234.551 226.654 235.072 227.031 235.449 227.5C235.84 227.956 236.113 228.477 236.27 229.062C236.426 229.635 236.523 230.208 236.562 230.781C236.589 231.081 236.608 231.387 236.621 231.699C236.647 231.999 236.66 232.298 236.66 232.598V239.863C236.66 240.189 236.647 240.488 236.621 240.762C236.608 241.022 236.589 241.283 236.562 241.543C236.549 241.79 236.53 242.044 236.504 242.305C236.491 242.552 236.484 242.819 236.484 243.105C236.484 243.262 236.517 243.385 236.582 243.477C236.66 243.555 236.797 243.613 236.992 243.652C237.188 243.691 237.454 243.717 237.793 243.73C238.132 243.743 238.561 243.75 239.082 243.75C239.303 243.75 239.46 243.841 239.551 244.023C239.655 244.193 239.707 244.349 239.707 244.492C239.707 244.635 239.668 244.746 239.59 244.824C239.512 244.889 239.414 244.941 239.297 244.98C239.193 245.02 239.076 245.039 238.945 245.039C238.815 245.052 238.691 245.059 238.574 245.059C238.001 245.059 237.357 245.039 236.641 245C235.938 244.974 235.254 244.961 234.59 244.961C234.382 244.961 234.16 244.967 233.926 244.98C233.704 244.993 233.438 245 233.125 245C232.812 245.013 232.441 245.026 232.012 245.039C231.595 245.052 231.081 245.059 230.469 245.059C230.273 245.059 230.143 245.007 230.078 244.902C230.026 244.798 230 244.661 230 244.492C230 244.167 230.156 243.984 230.469 243.945C230.612 243.932 230.755 243.926 230.898 243.926C231.055 243.926 231.217 243.926 231.387 243.926C231.634 243.926 231.875 243.919 232.109 243.906C232.344 243.893 232.552 243.867 232.734 243.828C232.917 243.789 233.06 243.737 233.164 243.672C233.281 243.607 233.34 243.529 233.34 243.438Z" fill="white"/>
</svg>
